<mxfile host="65bd71144e" scale="2" border="30">
    <diagram id="0QhtwqMjpmc_AO-MrRb4" name="第 1 页">
        <mxGraphModel dx="1252" dy="719" grid="1" gridSize="10" guides="1" tooltips="1" connect="1" arrows="1" fold="1" page="1" pageScale="1" pageWidth="1654" pageHeight="2336" math="0" shadow="0">
            <root>
                <mxCell id="0"/>
                <mxCell id="1" parent="0"/>
                <mxCell id="597" value="" style="rounded=1;whiteSpace=wrap;html=1;fontColor=#345253;strokeColor=none;fillColor=#EDF2F4;arcSize=4;" vertex="1" parent="1">
                    <mxGeometry x="260" y="120" width="650" height="440" as="geometry"/>
                </mxCell>
                <mxCell id="586" style="edgeStyle=none;rounded=1;orthogonalLoop=1;jettySize=auto;html=1;exitX=1;exitY=0;exitDx=0;exitDy=0;entryX=0.5;entryY=1;entryDx=0;entryDy=0;endArrow=block;endFill=1;strokeColor=#999999;" edge="1" parent="1" source="572" target="577">
                    <mxGeometry relative="1" as="geometry"/>
                </mxCell>
                <mxCell id="572" value="RpcEndpointRef" style="rounded=1;whiteSpace=wrap;html=1;strokeColor=none;fillColor=#345253;fontColor=#FFFFFF;" vertex="1" parent="1">
                    <mxGeometry x="230" y="280" width="135" height="40" as="geometry"/>
                </mxCell>
                <mxCell id="575" value="RpcEndpoint" style="ellipse;whiteSpace=wrap;html=1;aspect=fixed;strokeColor=none;fillColor=#345253;fontColor=#FFFFFF;" vertex="1" parent="1">
                    <mxGeometry x="290" y="160" width="80" height="80" as="geometry"/>
                </mxCell>
                <mxCell id="576" value="InBox" style="rounded=0;whiteSpace=wrap;html=1;strokeColor=none;fillColor=#FFD966;fontColor=#345253;" vertex="1" parent="1">
                    <mxGeometry x="380" y="160" width="70" height="30" as="geometry"/>
                </mxCell>
                <mxCell id="583" style="edgeStyle=none;rounded=1;orthogonalLoop=1;jettySize=auto;html=1;exitX=1;exitY=0.5;exitDx=0;exitDy=0;entryX=0;entryY=0.5;entryDx=0;entryDy=0;endArrow=block;endFill=1;strokeColor=#999999;" edge="1" parent="1" source="577" target="579">
                    <mxGeometry relative="1" as="geometry"/>
                </mxCell>
                <mxCell id="592" style="edgeStyle=none;rounded=1;orthogonalLoop=1;jettySize=auto;html=1;exitX=1;exitY=1;exitDx=0;exitDy=0;entryX=0.5;entryY=0;entryDx=0;entryDy=0;endArrow=block;endFill=1;strokeColor=#999999;" edge="1" parent="1" source="577" target="589">
                    <mxGeometry relative="1" as="geometry"/>
                </mxCell>
                <mxCell id="577" value="OutBoxes" style="rounded=0;whiteSpace=wrap;html=1;strokeColor=none;fillColor=#6E96A6;fontColor=#FFFFFF;" vertex="1" parent="1">
                    <mxGeometry x="380" y="210" width="70" height="30" as="geometry"/>
                </mxCell>
                <mxCell id="578" value="RpcEndpoint" style="ellipse;whiteSpace=wrap;html=1;aspect=fixed;strokeColor=none;fillColor=#345253;fontColor=#FFFFFF;" vertex="1" parent="1">
                    <mxGeometry x="797" y="260" width="80" height="80" as="geometry"/>
                </mxCell>
                <mxCell id="579" value="InBox" style="rounded=0;whiteSpace=wrap;html=1;strokeColor=none;fillColor=#FFD966;fontColor=#345253;" vertex="1" parent="1">
                    <mxGeometry x="717" y="310" width="70" height="30" as="geometry"/>
                </mxCell>
                <mxCell id="582" style="rounded=1;orthogonalLoop=1;jettySize=auto;html=1;exitX=0;exitY=0.5;exitDx=0;exitDy=0;entryX=1;entryY=0.5;entryDx=0;entryDy=0;endArrow=block;endFill=1;strokeColor=#999999;" edge="1" parent="1" source="580" target="576">
                    <mxGeometry relative="1" as="geometry"/>
                </mxCell>
                <mxCell id="580" value="OutBoxes" style="rounded=0;whiteSpace=wrap;html=1;strokeColor=none;fillColor=#6E96A6;fontColor=#FFFFFF;" vertex="1" parent="1">
                    <mxGeometry x="717" y="260" width="70" height="30" as="geometry"/>
                </mxCell>
                <mxCell id="587" style="edgeStyle=none;rounded=1;orthogonalLoop=1;jettySize=auto;html=1;exitX=0;exitY=1;exitDx=0;exitDy=0;entryX=0.5;entryY=0;entryDx=0;entryDy=0;endArrow=block;endFill=1;strokeColor=#999999;" edge="1" parent="1" source="581" target="580">
                    <mxGeometry relative="1" as="geometry"/>
                </mxCell>
                <mxCell id="581" value="RpcEndpointRef" style="rounded=1;whiteSpace=wrap;html=1;strokeColor=none;fillColor=#345253;fontColor=#FFFFFF;" vertex="1" parent="1">
                    <mxGeometry x="797" y="180" width="140" height="40" as="geometry"/>
                </mxCell>
                <mxCell id="588" value="RpcEndpoint" style="ellipse;whiteSpace=wrap;html=1;aspect=fixed;strokeColor=none;fillColor=#345253;fontColor=#FFFFFF;" vertex="1" parent="1">
                    <mxGeometry x="390" y="430" width="80" height="80" as="geometry"/>
                </mxCell>
                <mxCell id="589" value="InBox" style="rounded=0;whiteSpace=wrap;html=1;strokeColor=none;fillColor=#FFD966;fontColor=#345253;" vertex="1" parent="1">
                    <mxGeometry x="480" y="430" width="70" height="30" as="geometry"/>
                </mxCell>
                <mxCell id="595" style="edgeStyle=none;rounded=1;orthogonalLoop=1;jettySize=auto;html=1;exitX=1;exitY=0;exitDx=0;exitDy=0;entryX=0.5;entryY=1;entryDx=0;entryDy=0;endArrow=block;endFill=1;strokeColor=#999999;" edge="1" parent="1" source="590" target="579">
                    <mxGeometry relative="1" as="geometry"/>
                </mxCell>
                <mxCell id="590" value="OutBoxes" style="rounded=0;whiteSpace=wrap;html=1;strokeColor=none;fillColor=#6E96A6;fontColor=#FFFFFF;" vertex="1" parent="1">
                    <mxGeometry x="480" y="480" width="70" height="30" as="geometry"/>
                </mxCell>
                <mxCell id="594" style="edgeStyle=none;rounded=1;orthogonalLoop=1;jettySize=auto;html=1;exitX=1;exitY=0;exitDx=0;exitDy=0;entryX=0.5;entryY=1;entryDx=0;entryDy=0;endArrow=block;endFill=1;strokeColor=#999999;" edge="1" parent="1" source="591" target="590">
                    <mxGeometry relative="1" as="geometry"/>
                </mxCell>
                <mxCell id="591" value="RpcEndpointRef" style="rounded=1;whiteSpace=wrap;html=1;strokeColor=none;fillColor=#345253;fontColor=#FFFFFF;" vertex="1" parent="1">
                    <mxGeometry x="330" y="540" width="140" height="40" as="geometry"/>
                </mxCell>
                <mxCell id="598" value="&lt;b&gt;&lt;i&gt;RpcEnv&lt;/i&gt;&lt;/b&gt;" style="text;html=1;strokeColor=none;fillColor=none;align=center;verticalAlign=middle;whiteSpace=wrap;rounded=0;fontColor=#345253;" vertex="1" parent="1">
                    <mxGeometry x="565" y="130" width="40" height="20" as="geometry"/>
                </mxCell>
            </root>
        </mxGraphModel>
    </diagram>
</mxfile>